<svg xmlns="http://www.w3.org/2000/svg" viewBox="0 0 128 128" role="img" aria-labelledby="title desc">
  <title id="title">BLUN Educational Foundation mark</title>
  <desc id="desc">A custom hunter green and gold shield mark with BLUN initials.</desc>
  <defs>
    <linearGradient id="shield" x1="22" x2="106" y1="16" y2="112" gradientUnits="userSpaceOnUse">
      <stop stop-color="#14543f"/>
      <stop offset="1" stop-color="#082f24"/>
    </linearGradient>
    <linearGradient id="gold" x1="34" x2="94" y1="30" y2="96" gradientUnits="userSpaceOnUse">
      <stop stop-color="#f4df82"/>
      <stop offset="1" stop-color="#c9a227"/>
    </linearGradient>
  </defs>
  <path d="M64 9 108 25v34c0 27-17 48-44 60-27-12-44-33-44-60V25L64 9Z" fill="url(#shield)"/>
  <path d="M64 18 98 30v29c0 21-12 38-34 49-22-11-34-28-34-49V30l34-12Z" fill="none" stroke="url(#gold)" stroke-width="5"/>
  <path d="M39 77c12-6 38-6 50 0" fill="none" stroke="#f4df82" stroke-linecap="round" stroke-width="5"/>
  <path d="M43 62c10-5 32-5 42 0" fill="none" stroke="#f4df82" stroke-linecap="round" stroke-width="4"/>
  <path d="M64 37v47" stroke="#f4df82" stroke-linecap="round" stroke-width="5"/>
  <text x="64" y="54" fill="#fffaf0" font-family="Georgia, serif" font-size="20" font-weight="700" text-anchor="middle">BLUN</text>
  <circle cx="64" cy="91" r="5" fill="#f4df82"/>
</svg>
